<svg xmlns="http://www.w3.org/2000/svg" version="1.1" xmlns:xlink="http://www.w3.org/1999/xlink" xmlns:svgjs="http://svgjs.dev/svgjs" width="1500" height="1500" viewBox="0 0 1500 1500"><rect width="1500" height="1500" fill="#ffffff"></rect><g transform="matrix(0.6666666666666666,0,0,0.6666666666666666,249.39436519522388,593.8793908794603)"><svg viewBox="0 0 396 123" data-background-color="#2b2b2b" preserveAspectRatio="xMidYMid meet" height="465" width="1500" xmlns="http://www.w3.org/2000/svg" xmlns:xlink="http://www.w3.org/1999/xlink"><g id="tight-bounds" transform="matrix(1,0,0,1,0.24008861730862918,0.4447953560789415)"><svg viewBox="0 0 395.52 122.110575863836" height="122.110575863836" width="395.52"><g><svg viewBox="0 0 395.52 122.110575863836" height="122.110575863836" width="395.52"><g><svg viewBox="0 0 395.52 122.110575863836" height="122.110575863836" width="395.52"><g id="textblocktransform"><svg viewBox="0 0 395.52 122.110575863836" height="122.110575863836" width="395.52" id="textblock"><g><svg viewBox="0 0 395.52 87.90948163443392" height="87.90948163443392" width="395.52"><path d="M394.594 18.855C392.735 9.73 387.435 7.193 387.435 7.193 371.165-2.206 350.86-0.18 332.619 1.171 300.414 1.225 268.339 3.233 236.208 4.31 168.767 4.474 100.749 1.773 33.643 8.434 27.339 10.478-6.54 8.836 1.121 20.023 3.129 24.677 10.456 29.841 10.232 34.112 11.236 34.86 12.631 33.145 13.226 34.221 15.309 37.123 18.711 35.754 21.501 37.47 17.614 42.051 20.403 45.865 23.062 49.862 18.377 50.902 12.371 50.409 9.675 53.858 9.396 56.359 7.89 55.884 6.235 55.775 5.026 55.702 2.59 55.975 2.999 56.76 4.394 59.443-1.594 60.994 2.162 63.622-0.422 66.469 3.948 68.933 3.353 72.017 3.278 72.637 3.687 73.167 4.338 73.313 7.22 74.097 3.018 75.63 3.464 77.291 33.029 88.643 65.104 80.795 95.394 86.015 103.259 82.365 97.346 87.31 100.489 86.544 102.943 85.65 104.728 89.354 107.499 87.256 107.927 86.653 107.276 85.23 108.8 85.504 109.6 85.65 110.307 85.613 110.418 84.774 110.586 83.514 109.117 84.299 108.726 83.642 112.947 80.321 111.906 88.223 115.866 87.894 115.68 86.927 114.528 85.54 116.889 85.723 119.232 84.336 119.306 83.186 121.389 86.307 121.463 86.982 121.835 87.456 122.43 87.785 128.938 84.39 135.409 88.989 142.233 87.456 146.417 85.777 150.433 88.369 154.672 87.73 156.16 87.219 157.666 86.307 159.098 87.84 176.632 88.168 195.319 86.799 211.943 87.894 256.364 85.85 303.836 88.734 350.674 86.033 361.719 84.993 373.192 83.514 383.958 82.328 383.958 82.328 392.679 79.08 392.679 64.48S394.538 51.705 394.817 40.08C395.096 28.454 396.398 27.98 394.538 18.855Z" opacity="1" fill="#000000" data-fill-palette-color="tertiary"></path><g transform="matrix(1,0,0,1,55.76832,26.068561146666667)"><svg width="283.98335999999995" viewBox="1.42 -38.57 311.43507314682006 39.23" height="35.77235934110058" data-palette-color="#ffffff"><g transform="matrix(1,0,0,1,0,0)"><g><svg width="17.616715431213375" viewBox="1.78 -36.36 74.21 36.36" height="8.63134765625" data-palette-color="#ffffff" id="scriptelement" x="295.2383577156067" y="-38.57"><path d="M12.91-30.02L1.78-30.02 1.78-36.36 31.64-36.36 31.64-30.02 20.51-30.02 20.51 0 12.91 0 12.91-30.02ZM36.57 0L36.57-36.36 46.06-36.36 56.07-11.93 56.5-11.93 66.51-36.36 75.99-36.36 75.99 0 68.53 0 68.53-23.67 68.23-23.67 58.82-0.18 53.74-0.18 44.33-23.76 44.03-23.76 44.03 0 36.57 0Z" opacity="1" transform="matrix(1,0,0,1,0,0)" fill="#ffffff" class="undefined-123" data-fill-palette-color="quaternary" id="tk-123"></path></svg></g></g><path d="M25.15-22.46L19.51 0 10.64 0 1.42-35.16 11.3-35.16 17.14-10.21 22.31-35.16 31.2-35.16 36.87-9.57 43.24-35.16 49.22-35.16 38.99 0 30.1 0 25.15-22.46ZM58.2-13.38L58.2-13.38Q59.71-13.04 61.23-12.84 62.74-12.65 64.28-12.65L64.28-12.65Q65.89-12.65 67.27-12.95 68.65-13.26 69.66-13.98 70.68-14.7 71.26-15.89 71.85-17.09 71.85-18.87L71.85-18.87Q71.85-20.31 71.46-21.51 71.07-22.71 70.3-23.56 69.53-24.41 68.41-24.89 67.28-25.37 65.79-25.37L65.79-25.37Q64.4-25.37 63.29-24.85 62.18-24.34 61.34-23.47 60.5-22.61 59.9-21.46 59.3-20.31 58.91-19.07 58.52-17.82 58.35-16.55 58.18-15.28 58.18-14.16L58.18-14.16Q58.18-13.96 58.18-13.77 58.18-13.57 58.2-13.38ZM78.54-18.95L78.54-18.95Q78.54-17.21 77.98-15.86 77.41-14.5 76.45-13.48 75.49-12.45 74.22-11.74 72.95-11.04 71.51-10.58 70.07-10.13 68.54-9.94 67.01-9.74 65.57-9.74L65.57-9.74Q63.74-9.74 61.96-10 60.18-10.25 58.44-10.82L58.44-10.82Q58.71-9.2 59.3-7.75 59.89-6.3 60.86-5.21 61.84-4.13 63.27-3.49 64.69-2.86 66.65-2.86L66.65-2.86Q67.94-2.86 69.11-3.25 70.29-3.64 71.26-4.35 72.24-5.05 72.98-6.03 73.73-7.01 74.19-8.2L74.19-8.2 77.76-6.88Q76.95-4.96 75.55-3.55 74.14-2.15 72.37-1.23 70.6-0.32 68.61 0.12 66.62 0.56 64.67 0.56L64.67 0.56Q61.45 0.56 58.71-0.52 55.98-1.61 54-3.56 52.02-5.52 50.9-8.23 49.78-10.94 49.78-14.16L49.78-14.16Q49.78-17.38 50.9-20.09 52.02-22.8 54-24.76 55.98-26.71 58.71-27.8 61.45-28.88 64.67-28.88L64.67-28.88Q66.23-28.88 67.87-28.66 69.5-28.44 71.04-27.97 72.58-27.49 73.95-26.73 75.31-25.98 76.33-24.87 77.34-23.75 77.94-22.29 78.54-20.83 78.54-18.95ZM113.67-14.06L113.67-14.06Q113.67-10.99 112.74-8.3 111.81-5.62 110.05-3.63 108.3-1.64 105.76-0.49 103.22 0.66 100 0.66L100 0.66Q98.36 0.66 96.88 0.17 95.41-0.32 94.17-1.21 92.94-2.1 92-3.34 91.06-4.59 90.52-6.13L90.52-6.13 86.86 0 83.69 0 83.69-38.57 91.94-38.57 91.94-24.83Q93.4-26.86 95.47-27.81 97.53-28.76 100-28.76L100-28.76Q103.22-28.76 105.76-27.61 108.3-26.46 110.05-24.49 111.81-22.51 112.74-19.82 113.67-17.14 113.67-14.06ZM105.29-14.06L105.29-14.06Q105.29-15.14 105.18-16.35 105.07-17.55 104.8-18.75 104.54-19.95 104.06-21.04 103.58-22.14 102.85-22.99 102.12-23.83 101.09-24.33 100.07-24.83 98.68-24.83L98.68-24.83Q97.41-24.83 96.42-24.3 95.43-23.78 94.68-22.9 93.94-22.02 93.43-20.9 92.91-19.78 92.6-18.58 92.28-17.38 92.13-16.21 91.99-15.04 91.99-14.06L91.99-14.06Q91.99-12.96 92.1-11.74 92.21-10.52 92.48-9.31 92.74-8.11 93.22-7.02 93.7-5.93 94.44-5.09 95.19-4.25 96.22-3.76 97.26-3.27 98.68-3.27L98.68-3.27Q100.04-3.27 101.08-3.77 102.12-4.27 102.85-5.11 103.58-5.96 104.06-7.07 104.54-8.18 104.8-9.38 105.07-10.57 105.18-11.78 105.29-12.99 105.29-14.06ZM143.25-9.01L143.25-9.01Q143.25-7.15 142.72-5.71 142.18-4.27 141.25-3.21 140.32-2.15 139.06-1.43 137.79-0.71 136.33-0.27 134.88 0.17 133.29 0.37 131.71 0.56 130.14 0.56L130.14 0.56Q128.04 0.56 126.43 0.29 124.82 0.02 123.36-0.57 121.89-1.17 120.44-2.12 118.99-3.08 117.2-4.44L117.2-4.44 122.01-8.37Q122.67-7.13 123.76-6.12 124.85-5.1 126.02-4.37 127.19-3.64 128.29-3.25 129.39-2.86 130.07-2.86L130.07-2.86Q130.63-2.86 131.34-2.89 132.05-2.93 132.78-3.04 133.51-3.15 134.22-3.37 134.93-3.59 135.48-3.97 136.03-4.35 136.36-4.92 136.69-5.49 136.69-6.3L136.69-6.3Q136.69-7.13 136.26-7.75 135.83-8.37 135.15-8.84 134.47-9.3 133.59-9.62 132.71-9.94 131.82-10.18 130.93-10.42 130.1-10.61 129.26-10.79 128.65-10.96L128.65-10.96Q127.53-11.28 126.29-11.61 125.04-11.94 123.82-12.37 122.6-12.79 121.49-13.38 120.38-13.96 119.54-14.78 118.69-15.6 118.19-16.71 117.69-17.82 117.69-19.31L117.69-19.31Q117.69-22.05 118.78-23.89 119.87-25.73 121.65-26.84 123.43-27.95 125.7-28.42 127.97-28.88 130.31-28.88L130.31-28.88Q131.93-28.88 133.71-28.55 135.49-28.22 137.18-27.58 138.86-26.93 140.32-26 141.79-25.07 142.77-23.88L142.77-23.88 137.96-19.92Q137.42-21.39 136.55-22.44 135.69-23.49 134.67-24.16 133.66-24.83 132.6-25.15 131.54-25.46 130.63-25.46L130.63-25.46Q129.75-25.46 128.65-25.39 127.56-25.32 126.59-24.98 125.63-24.63 124.96-23.94 124.28-23.24 124.28-22.02L124.28-22.02Q124.28-21.14 124.69-20.52 125.09-19.9 125.75-19.45 126.41-18.99 127.25-18.69 128.09-18.38 128.97-18.15 129.85-17.92 130.68-17.75 131.51-17.58 132.17-17.38L132.17-17.38Q133.29-17.07 134.55-16.74 135.81-16.41 137.03-15.98 138.25-15.55 139.38-14.98 140.52-14.4 141.37-13.57 142.23-12.74 142.74-11.63 143.25-10.52 143.25-9.01ZM159.07-24.93L159.07 0 150.8 0 150.8-24.93 145.67-24.93 145.67-28.2 150.8-28.2 150.8-38.57 159.07-38.57 159.07-28.2 167.62-28.2 167.62-24.93 159.07-24.93ZM176.99-13.38L176.99-13.38Q178.5-13.04 180.02-12.84 181.53-12.65 183.07-12.65L183.07-12.65Q184.68-12.65 186.06-12.95 187.44-13.26 188.45-13.98 189.47-14.7 190.05-15.89 190.64-17.09 190.64-18.87L190.64-18.87Q190.64-20.31 190.25-21.51 189.86-22.71 189.09-23.56 188.32-24.41 187.19-24.89 186.07-25.37 184.58-25.37L184.58-25.37Q183.19-25.37 182.08-24.85 180.97-24.34 180.13-23.47 179.28-22.61 178.69-21.46 178.09-20.31 177.7-19.07 177.31-17.82 177.14-16.55 176.97-15.28 176.97-14.16L176.97-14.16Q176.97-13.96 176.97-13.77 176.97-13.57 176.99-13.38ZM197.33-18.95L197.33-18.95Q197.33-17.21 196.76-15.86 196.2-14.5 195.24-13.48 194.27-12.45 193.01-11.74 191.74-11.04 190.3-10.58 188.85-10.13 187.33-9.94 185.8-9.74 184.36-9.74L184.36-9.74Q182.53-9.74 180.75-10 178.97-10.25 177.23-10.82L177.23-10.82Q177.5-9.2 178.09-7.75 178.67-6.3 179.65-5.21 180.63-4.13 182.06-3.49 183.48-2.86 185.44-2.86L185.44-2.86Q186.73-2.86 187.9-3.25 189.07-3.64 190.05-4.35 191.03-5.05 191.77-6.03 192.52-7.01 192.98-8.2L192.98-8.2 196.55-6.88Q195.74-4.96 194.34-3.55 192.93-2.15 191.16-1.23 189.39-0.32 187.4 0.12 185.41 0.56 183.46 0.56L183.46 0.56Q180.24 0.56 177.5-0.52 174.77-1.61 172.79-3.56 170.81-5.52 169.69-8.23 168.57-10.94 168.57-14.16L168.57-14.16Q168.57-17.38 169.69-20.09 170.81-22.8 172.79-24.76 174.77-26.71 177.5-27.8 180.24-28.88 183.46-28.88L183.46-28.88Q185.02-28.88 186.66-28.66 188.29-28.44 189.83-27.97 191.37-27.49 192.74-26.73 194.1-25.98 195.12-24.87 196.13-23.75 196.73-22.29 197.33-20.83 197.33-18.95ZM209.26-13.38L209.26-13.38Q210.78-13.04 212.29-12.84 213.8-12.65 215.34-12.65L215.34-12.65Q216.95-12.65 218.33-12.95 219.71-13.26 220.72-13.98 221.74-14.7 222.32-15.89 222.91-17.09 222.91-18.87L222.91-18.87Q222.91-20.31 222.52-21.51 222.13-22.71 221.36-23.56 220.59-24.41 219.47-24.89 218.34-25.37 216.86-25.37L216.86-25.37Q215.46-25.37 214.35-24.85 213.24-24.34 212.4-23.47 211.56-22.61 210.96-21.46 210.36-20.31 209.97-19.07 209.58-17.82 209.41-16.55 209.24-15.28 209.24-14.16L209.24-14.16Q209.24-13.96 209.24-13.77 209.24-13.57 209.26-13.38ZM229.6-18.95L229.6-18.95Q229.6-17.21 229.04-15.86 228.48-14.5 227.51-13.48 226.55-12.45 225.28-11.74 224.01-11.04 222.57-10.58 221.13-10.13 219.6-9.94 218.08-9.74 216.64-9.74L216.64-9.74Q214.8-9.74 213.02-10 211.24-10.25 209.51-10.82L209.51-10.82Q209.78-9.2 210.36-7.75 210.95-6.3 211.92-5.21 212.9-4.13 214.33-3.49 215.76-2.86 217.71-2.86L217.71-2.86Q219-2.86 220.18-3.25 221.35-3.64 222.32-4.35 223.3-5.05 224.05-6.03 224.79-7.01 225.25-8.2L225.25-8.2 228.82-6.88Q228.01-4.96 226.61-3.55 225.2-2.15 223.43-1.23 221.66-0.32 219.67 0.12 217.69 0.56 215.73 0.56L215.73 0.56Q212.51 0.56 209.78-0.52 207.04-1.61 205.06-3.56 203.09-5.52 201.96-8.23 200.84-10.94 200.84-14.16L200.84-14.16Q200.84-17.38 201.96-20.09 203.09-22.8 205.06-24.76 207.04-26.71 209.78-27.8 212.51-28.88 215.73-28.88L215.73-28.88Q217.29-28.88 218.93-28.66 220.57-28.44 222.1-27.97 223.64-27.49 225.01-26.73 226.38-25.98 227.39-24.87 228.4-23.75 229-22.29 229.6-20.83 229.6-18.95ZM258.72-25.71L258.72-25.71 254.08-18.02Q253.79-18.99 253.33-20.21 252.86-21.44 252.18-22.5 251.5-23.56 250.54-24.28 249.59-25 248.35-25L248.35-25Q247.2-25 246.36-24.41 245.51-23.83 244.93-22.89 244.34-21.95 243.96-20.76 243.59-19.58 243.38-18.37 243.17-17.16 243.1-16.05 243.02-14.94 243.02-14.14L243.02-14.14 243.02 0 234.75 0 234.75-28.2 237.92-28.2 241.27-21.63Q241.95-23.22 242.83-24.55 243.71-25.88 244.86-26.84 246-27.81 247.46-28.34 248.91-28.88 250.74-28.88L250.74-28.88Q251.69-28.88 252.86-28.72 254.04-28.56 255.16-28.19 256.28-27.81 257.23-27.2 258.19-26.59 258.72-25.71ZM286.43-9.01L286.43-9.01Q286.43-7.15 285.89-5.71 285.36-4.27 284.43-3.21 283.5-2.15 282.23-1.43 280.96-0.71 279.51-0.27 278.06 0.17 276.47 0.37 274.88 0.56 273.32 0.56L273.32 0.56Q271.22 0.56 269.61 0.29 268 0.02 266.53-0.57 265.07-1.17 263.62-2.12 262.16-3.08 260.38-4.44L260.38-4.44 265.19-8.37Q265.85-7.13 266.94-6.12 268.02-5.1 269.19-4.37 270.37-3.64 271.46-3.25 272.56-2.86 273.25-2.86L273.25-2.86Q273.81-2.86 274.52-2.89 275.22-2.93 275.96-3.04 276.69-3.15 277.4-3.37 278.11-3.59 278.65-3.97 279.2-4.35 279.53-4.92 279.86-5.49 279.86-6.3L279.86-6.3Q279.86-7.13 279.44-7.75 279.01-8.37 278.32-8.84 277.64-9.3 276.76-9.62 275.88-9.94 274.99-10.18 274.1-10.42 273.27-10.61 272.44-10.79 271.83-10.96L271.83-10.96Q270.71-11.28 269.46-11.61 268.22-11.94 267-12.37 265.78-12.79 264.67-13.38 263.55-13.96 262.71-14.78 261.87-15.6 261.37-16.71 260.87-17.82 260.87-19.31L260.87-19.31Q260.87-22.05 261.96-23.89 263.04-25.73 264.82-26.84 266.61-27.95 268.88-28.42 271.15-28.88 273.49-28.88L273.49-28.88Q275.1-28.88 276.88-28.55 278.67-28.22 280.35-27.58 282.04-26.93 283.5-26 284.97-25.07 285.94-23.88L285.94-23.88 281.13-19.92Q280.6-21.39 279.73-22.44 278.86-23.49 277.85-24.16 276.84-24.83 275.77-25.15 274.71-25.46 273.81-25.46L273.81-25.46Q272.93-25.46 271.83-25.39 270.73-25.32 269.77-24.98 268.8-24.63 268.13-23.94 267.46-23.24 267.46-22.02L267.46-22.02Q267.46-21.14 267.86-20.52 268.27-19.9 268.93-19.45 269.58-18.99 270.43-18.69 271.27-18.38 272.15-18.15 273.03-17.92 273.86-17.75 274.69-17.58 275.35-17.38L275.35-17.38Q276.47-17.07 277.73-16.74 278.98-16.41 280.2-15.98 281.43-15.55 282.56-14.98 283.7-14.4 284.55-13.57 285.4-12.74 285.92-11.63 286.43-10.52 286.43-9.01Z" opacity="1" transform="matrix(1,0,0,1,0,0)" fill="#ffffff" class="wordmark-text-0" data-fill-palette-color="quaternary" id="text-0"></path></svg></g></svg></g><g transform="matrix(1,0,0,1,60.92279568693874,96.35447713824358)"><svg viewBox="0 0 273.6744086261225 25.756098725592427" height="25.756098725592427" width="273.6744086261225"><g transform="matrix(1,0,0,1,0,0)"><svg width="273.6744086261225" viewBox="2.8 -38 431.33 40.6" height="25.756098725592427" data-palette-color="#ffffff"><path d="M12.25 0.5Q11.3 0.5 10.4-0.85L10.4-0.85 10.4-1Q10.25-3.65 9.5-6.9 8.75-10.15 7.3-14.75L7.3-14.75Q6.2-18.2 5.45-20.95L5.45-20.95 5.45-1.25Q5.45-0.45 5.18-0.08 4.9 0.3 4.1 0.3L4.1 0.3Q3.5 0.3 3.15-0.08 2.8-0.45 2.8-1.05L2.8-1.05 2.8-1.45 2.9-16.15Q3-22.65 3-30.8L3-30.8 3-36.95Q3-37.55 3.25-37.77 3.5-38 4.3-38L4.3-38Q5.55-38 6.6-37.52 7.65-37.05 8.4-36.2L8.4-36.2Q9.95-34.45 10.4-32L10.4-32Q10.6-31 10.6-29.7L10.6-29.7Q10.6-28.95 10.48-28.05 10.35-27.15 10.3-26.9L10.3-26.9Q10.2-26.4 9.85-25.4 9.5-24.4 9.4-24.1L9.4-24.1 8.8-22.7 8.3-21.4Q8.35-19.6 8.93-16.85 9.5-14.1 10.2-11.75L10.2-11.75Q10.7-10.1 12-6.25L12-6.25 13.45-1.85 13.45-1.75Q13.45-0.9 13.3-0.3L13.3-0.3Q13.15 0.5 12.25 0.5L12.25 0.5ZM5.35-23.2Q6.05-23.9 7.05-25.15L7.05-25.15 7.8-29.45Q7.85-29.7 7.85-30.15L7.85-30.15Q7.85-31.6 7.3-33.5L7.3-33.5Q7-34.4 6.53-35.02 6.05-35.65 5.55-35.7L5.55-35.7 5.45-30.7Q5.3-27.35 5.3-25.5L5.3-25.5Q5.3-23.75 5.35-23.2L5.35-23.2ZM19.8 0.65Q19.15 0.65 18.62 0.2 18.1-0.25 18.05-0.9L18.05-0.9 18.05-2.2 18.05-3.2Q18-3.65 18-4.25L18-4.25Q18-5.3 17.85-7.45L17.85-7.45 17.75-10.65Q17.75-13.1 17.9-17.95L17.9-17.95Q18.1-22.3 18.1-25.25L18.1-25.25Q18.1-25.95 17.95-27.35L17.95-27.35Q17.8-28.8 17.8-29.45L17.8-29.45Q17.8-33 19.9-33L19.9-33Q21.55-33 23.72-32.35 25.9-31.7 25.9-30.8L25.9-30.8Q25.9-30.3 25.47-29.88 25.05-29.45 24.45-29.2L24.45-29.2Q22.35-29.95 20.65-30.2L20.65-30.2Q20.7-29.45 20.7-28.05L20.7-28.05Q20.7-26.05 20.65-24.45L20.65-24.45Q20.5-22.05 20.5-20.85L20.5-20.85 20.65-20.05 21.45-20.1Q21.85-20.15 22.45-20.15L22.45-20.15Q24.85-20.15 24.85-18.75L24.85-18.75Q24.85-18.2 24.4-17.82 23.95-17.45 23.25-17.45L23.25-17.45Q22.35-17.45 21.85-17.55L21.85-17.55 20.6-17.55Q20.7-16.25 20.7-13.75L20.7-13.75Q20.7-11.25 20.65-9.25L20.65-9.25Q20.5-6.2 20.5-4.7L20.5-4.7Q20.5-1.9 20.6-1.9L20.6-1.9 22.25-1.95Q23.1-2 24.3-2L24.3-2Q26.2-2 26.2-0.8L26.2-0.8Q26.2-0.1 25.57 0.28 24.95 0.65 24.05 0.65L24.05 0.65 19.8 0.65ZM32.74 0.45Q32 0.45 30.95-0.3L30.95-0.3Q31.34-4.45 31.59-13.05L31.59-13.05Q31.84-22 31.95-23.8L31.95-23.8 31.95-25Q32.14-29.9 32.14-31.8L32.14-31.8Q32.14-32.5 32.72-32.9 33.3-33.3 34.05-33.3L34.05-33.3Q35.8-33.3 37.8-33L37.8-33Q39.09-32.8 39.87-32.35 40.64-31.9 40.64-31.25L40.64-31.25Q40.64-29.85 38.09-29.85L38.09-29.85Q37.14-30.35 35.49-30.35L35.49-30.35 34.89-30.35 34.89-29.75Q34.89-27.8 34.7-24.8L34.7-24.8Q34.45-22 34.45-19.75L34.45-19.75 34.45-18.4 34.84-18.4 35.34-18.4Q37.8-18.4 37.8-17.1L37.8-17.1Q37.8-16.45 37.27-16.05 36.74-15.65 35.99-15.65L35.99-15.65Q34.8-15.65 34.05-15.9L34.05-15.9 34.05-1.75Q34.05 0.45 32.74 0.45L32.74 0.45ZM46.54-0.05Q42.19-0.05 42.19-1.55L42.19-1.55Q42.19-2.75 43.74-2.75L43.74-2.75 44.29-2.75 44.79-2.7Q45.19-2.7 45.34-2.95 45.49-3.2 45.49-3.85L45.49-3.85Q45.49-4.7 45.39-6.5L45.39-6.5Q45.24-7.7 45.04-10.8L45.04-10.8Q44.59-18.45 44.59-22.35L44.59-22.35Q44.59-23.75 44.64-24.9L44.64-24.9 44.69-27.45Q44.69-29.1 44.54-30.2L44.54-30.2Q43.74-30 43.39-30L43.39-30Q42.19-30 42.19-31.2L42.19-31.2Q42.19-31.8 42.94-32.25 43.69-32.7 44.84-32.9L44.84-32.9Q46.84-33.3 48.39-33.3L48.39-33.3Q48.99-33.3 49.42-32.88 49.84-32.45 49.84-31.9L49.84-31.9Q49.84-31.35 49.52-30.95 49.19-30.55 48.69-30.55L48.69-30.55Q48.39-30.55 48.19-30.6L48.19-30.6 47.79-30.6Q47.29-30.6 47.07-30.38 46.84-30.15 46.84-29.55L46.84-29.55Q46.84-24.7 47.44-14.95L47.44-14.95Q47.54-13.15 47.84-9.65L47.84-9.65Q48.09-7.35 48.09-4.95L48.09-4.95 48.09-3.05Q48.39-3.1 49.09-3.1L49.09-3.1Q51.19-3.1 51.19-1.35L51.19-1.35 51.19-1.05 49.94-0.2Q49.89-0.2 49.62-0.18 49.34-0.15 48.59-0.15L48.59-0.15Q46.99-0.05 46.54-0.05L46.54-0.05ZM68.99 0.15Q68.39 0.15 68.09-0.18 67.79-0.5 67.64-1.3L67.64-1.3 67.34-2.25 67.34-2.35 67.34-2.5Q67.34-4.15 63.92-13.75 60.49-23.35 58.54-27.95L58.54-27.95 58.54-2.8 58.74-2.45Q58.79-2.35 58.94-2.1 59.09-1.85 59.09-1.6L59.09-1.6Q59.09-0.95 58.64-0.5 58.19-0.05 57.54-0.05L57.54-0.05Q55.94-0.05 55.94-3.1L55.94-3.1 55.89-11.65Q55.84-15.5 55.84-20.25L55.84-20.25Q55.84-21.85 55.99-24.9L55.99-24.9Q56.14-28.05 56.14-29.55L56.14-29.55Q56.14-31.9 57.94-33.25L57.94-33.25 57.94-32.95Q58.24-33.05 58.34-33.05L58.34-33.05Q59.49-33.05 61.24-29.05L61.24-29.05Q62.64-25.85 63.77-22.3 64.89-18.75 66.74-12.2L66.74-12.2 67.24-10.4Q68.39-6.35 68.99-4.6L68.99-4.6Q69.99-15.35 69.99-30L69.99-30 69.99-30.65Q69.94-30.95 69.94-31.3L69.94-31.3Q69.94-32.8 71.14-32.8L71.14-32.8Q71.84-32.8 72.22-32.25 72.59-31.7 72.59-30.85L72.59-30.85 72.59-27.1Q72.49-19.4 71.99-10.4 71.49-1.4 70.79-0.25L70.79-0.25Q69.34 0.15 68.99 0.15L68.99 0.15ZM81.59 0.65Q80.94 0.65 80.41 0.2 79.89-0.25 79.84-0.9L79.84-0.9 79.84-2.2 79.84-3.2Q79.79-3.65 79.79-4.25L79.79-4.25Q79.79-5.3 79.64-7.45L79.64-7.45 79.54-10.65Q79.54-13.1 79.69-17.95L79.69-17.95Q79.89-22.3 79.89-25.25L79.89-25.25Q79.89-25.95 79.74-27.35L79.74-27.35Q79.59-28.8 79.59-29.45L79.59-29.45Q79.59-33 81.69-33L81.69-33Q83.34-33 85.51-32.35 87.69-31.7 87.69-30.8L87.69-30.8Q87.69-30.3 87.26-29.88 86.84-29.45 86.24-29.2L86.24-29.2Q84.14-29.95 82.44-30.2L82.44-30.2Q82.49-29.45 82.49-28.05L82.49-28.05Q82.49-26.05 82.44-24.45L82.44-24.45Q82.29-22.05 82.29-20.85L82.29-20.85 82.44-20.05 83.24-20.1Q83.64-20.15 84.24-20.15L84.24-20.15Q86.64-20.15 86.64-18.75L86.64-18.75Q86.64-18.2 86.19-17.82 85.74-17.45 85.04-17.45L85.04-17.45Q84.14-17.45 83.64-17.55L83.64-17.55 82.39-17.55Q82.49-16.25 82.49-13.75L82.49-13.75Q82.49-11.25 82.44-9.25L82.44-9.25Q82.29-6.2 82.29-4.7L82.29-4.7Q82.29-1.9 82.39-1.9L82.39-1.9 84.04-1.95Q84.89-2 86.09-2L86.09-2Q87.99-2 87.99-0.8L87.99-0.8Q87.99-0.1 87.36 0.28 86.74 0.65 85.84 0.65L85.84 0.65 81.59 0.65ZM95.09 0.3Q93.79 0.3 93.79-6.25L93.79-6.25 93.89-14.15Q93.94-17.65 93.94-22L93.94-22Q93.94-23.6 93.64-26.95L93.64-26.95Q93.39-30.6 93.39-31.4L93.39-31.4Q93.39-32.05 93.94-32.55 94.49-33.05 95.14-33.05L95.14-33.05Q96.89-33.05 98.51-32.27 100.14-31.5 101.39-30.1L101.39-30.1Q104.04-27.05 104.89-23.4L104.89-23.4Q105.34-21.55 105.34-19.75L105.34-19.75Q105.34-19.1 105.29-18.55L105.29-18.55 105.24-17.2 105.24-14.45Q105.24-11.25 105.04-9.4L105.04-9.4Q104.74-6.9 103.89-4.95L103.89-4.95Q102.89-2.85 100.99-1.2L100.99-1.2Q100.09-0.45 98.69 0.3L98.69 0.3 95.09 0.3ZM97.29-2.25Q98.29-2.25 99.14-2.78 99.99-3.3 100.59-4.2L100.59-4.2Q101.09-5 101.51-6.23 101.94-7.45 102.14-8.6L102.14-8.6Q102.59-10.85 102.69-13.2L102.69-13.2Q102.74-13.8 102.74-14.95L102.74-14.95Q102.74-30.05 96.89-30.7L96.89-30.7Q96.54-28.45 96.54-25.5L96.54-25.5Q96.54-22.35 96.94-14.5L96.94-14.5Q97.29-7.55 97.29-3.45L97.29-3.45 97.29-2.25ZM114.58 0.8Q113.93 0.8 113.43 0.25 112.93-0.3 112.93-1L112.93-1Q112.93-1.75 113.48-2.35 114.03-2.95 114.78-2.95L114.78-2.95Q115.48-2.95 116.03-2.35 116.58-1.75 116.58-1.05L116.58-1.05Q116.58-0.25 116.01 0.28 115.43 0.8 114.58 0.8L114.58 0.8ZM143.58 0.5Q142.63 0.5 141.73-0.85L141.73-0.85 141.73-1Q141.58-3.65 140.83-6.9 140.08-10.15 138.63-14.75L138.63-14.75Q137.53-18.2 136.78-20.95L136.78-20.95 136.78-1.25Q136.78-0.45 136.5-0.08 136.23 0.3 135.43 0.3L135.43 0.3Q134.83 0.3 134.48-0.08 134.13-0.45 134.13-1.05L134.13-1.05 134.13-1.45 134.23-16.15Q134.33-22.65 134.33-30.8L134.33-30.8 134.33-36.95Q134.33-37.55 134.58-37.77 134.83-38 135.63-38L135.63-38Q136.88-38 137.93-37.52 138.98-37.05 139.73-36.2L139.73-36.2Q141.28-34.45 141.73-32L141.73-32Q141.93-31 141.93-29.7L141.93-29.7Q141.93-28.95 141.8-28.05 141.68-27.15 141.63-26.9L141.63-26.9Q141.53-26.4 141.18-25.4 140.83-24.4 140.73-24.1L140.73-24.1 140.13-22.7 139.63-21.4Q139.68-19.6 140.25-16.85 140.83-14.1 141.53-11.75L141.53-11.75Q142.03-10.1 143.33-6.25L143.33-6.25 144.78-1.85 144.78-1.75Q144.78-0.9 144.63-0.3L144.63-0.3Q144.48 0.5 143.58 0.5L143.58 0.5ZM136.68-23.2Q137.38-23.9 138.38-25.15L138.38-25.15 139.13-29.45Q139.18-29.7 139.18-30.15L139.18-30.15Q139.18-31.6 138.63-33.5L138.63-33.5Q138.33-34.4 137.85-35.02 137.38-35.65 136.88-35.7L136.88-35.7 136.78-30.7Q136.63-27.35 136.63-25.5L136.63-25.5Q136.63-23.75 136.68-23.2L136.68-23.2ZM158.68 0.45Q157.53 0.45 156.97 0.1 156.43-0.25 156.43-1.2L156.43-1.2Q156.43-2.7 155.93-6.3L155.93-6.3 155.72-7.35 150.78-8.1Q150.47-6.95 149.93-3.45L149.93-3.45Q149.63-1 148.97-0.2L148.97-0.2Q148.63 0.25 147.97 0.25L147.97 0.25Q147.38 0.25 146.88-0.13 146.38-0.5 146.38-1.05L146.38-1.05 146.47-1.3 146.53-1.5Q149.83-14.35 151.53-26.85L151.53-26.85Q151.53-27.05 151.58-27.53 151.63-28 151.68-28.9L151.68-28.9Q151.83-30.75 152-31.85 152.18-32.95 152.58-33.5L152.58-33.5 154.28-33.5Q154.97-33.5 155.47-33.18 155.97-32.85 155.97-32.25L155.97-32.25Q155.97-28.45 157.03-20.95L157.03-20.95Q158.03-13.25 158.03-10.15L158.03-10.15Q158.03-9.85 158.28-8.6L158.28-8.6Q158.53-7.45 158.53-7.1L158.53-7.1Q158.53-6.75 159.03-4.1L159.03-4.1Q159.47-1.7 159.47-1L159.47-1 159.47-0.95Q159.47 0.15 158.68 0.45L158.68 0.45ZM155.38-9.15Q155.22-9.9 155.22-11L155.22-11Q155.22-15.5 154.43-22.5L154.43-22.5 153.93-27.7Q151.78-15.95 150.97-9.95L150.97-9.95Q151.72-9.45 155.38-9.15L155.38-9.15ZM165.37 0.3Q164.07 0.3 164.07-6.25L164.07-6.25 164.17-14.15Q164.22-17.65 164.22-22L164.22-22Q164.22-23.6 163.92-26.95L163.92-26.95Q163.67-30.6 163.67-31.4L163.67-31.4Q163.67-32.05 164.22-32.55 164.77-33.05 165.42-33.05L165.42-33.05Q167.17-33.05 168.8-32.27 170.42-31.5 171.67-30.1L171.67-30.1Q174.32-27.05 175.17-23.4L175.17-23.4Q175.62-21.55 175.62-19.75L175.62-19.75Q175.62-19.1 175.57-18.55L175.57-18.55 175.52-17.2 175.52-14.45Q175.52-11.25 175.32-9.4L175.32-9.4Q175.02-6.9 174.17-4.95L174.17-4.95Q173.17-2.85 171.27-1.2L171.27-1.2Q170.37-0.45 168.97 0.3L168.97 0.3 165.37 0.3ZM167.57-2.25Q168.57-2.25 169.42-2.78 170.27-3.3 170.87-4.2L170.87-4.2Q171.37-5 171.8-6.23 172.22-7.45 172.42-8.6L172.42-8.6Q172.87-10.85 172.97-13.2L172.97-13.2Q173.02-13.8 173.02-14.95L173.02-14.95Q173.02-30.05 167.17-30.7L167.17-30.7Q166.82-28.45 166.82-25.5L166.82-25.5Q166.82-22.35 167.22-14.5L167.22-14.5Q167.57-7.55 167.57-3.45L167.57-3.45 167.57-2.25ZM183.57-0.05Q179.22-0.05 179.22-1.55L179.22-1.55Q179.22-2.75 180.77-2.75L180.77-2.75 181.32-2.75 181.82-2.7Q182.22-2.7 182.37-2.95 182.52-3.2 182.52-3.85L182.52-3.85Q182.52-4.7 182.42-6.5L182.42-6.5Q182.27-7.7 182.07-10.8L182.07-10.8Q181.62-18.45 181.62-22.35L181.62-22.35Q181.62-23.75 181.67-24.9L181.67-24.9 181.72-27.45Q181.72-29.1 181.57-30.2L181.57-30.2Q180.77-30 180.42-30L180.42-30Q179.22-30 179.22-31.2L179.22-31.2Q179.22-31.8 179.97-32.25 180.72-32.7 181.87-32.9L181.87-32.9Q183.87-33.3 185.42-33.3L185.42-33.3Q186.02-33.3 186.45-32.88 186.87-32.45 186.87-31.9L186.87-31.9Q186.87-31.35 186.55-30.95 186.22-30.55 185.72-30.55L185.72-30.55Q185.42-30.55 185.22-30.6L185.22-30.6 184.82-30.6Q184.32-30.6 184.09-30.38 183.87-30.15 183.87-29.55L183.87-29.55Q183.87-24.7 184.47-14.95L184.47-14.95Q184.57-13.15 184.87-9.65L184.87-9.65Q185.12-7.35 185.12-4.95L185.12-4.95 185.12-3.05Q185.42-3.1 186.12-3.1L186.12-3.1Q188.22-3.1 188.22-1.35L188.22-1.35 188.22-1.05 186.97-0.2Q186.92-0.2 186.65-0.18 186.37-0.15 185.62-0.15L185.62-0.15Q184.02-0.05 183.57-0.05L183.57-0.05ZM202.22 0.45Q201.07 0.45 200.52 0.1 199.97-0.25 199.97-1.2L199.97-1.2Q199.97-2.7 199.47-6.3L199.47-6.3 199.27-7.35 194.32-8.1Q194.02-6.95 193.47-3.45L193.47-3.45Q193.17-1 192.52-0.2L192.52-0.2Q192.17 0.25 191.52 0.25L191.52 0.25Q190.92 0.25 190.42-0.13 189.92-0.5 189.92-1.05L189.92-1.05 190.02-1.3 190.07-1.5Q193.37-14.35 195.07-26.85L195.07-26.85Q195.07-27.05 195.12-27.53 195.17-28 195.22-28.9L195.22-28.9Q195.37-30.75 195.54-31.85 195.72-32.95 196.12-33.5L196.12-33.5 197.82-33.5Q198.52-33.5 199.02-33.18 199.52-32.85 199.52-32.25L199.52-32.25Q199.52-28.45 200.57-20.95L200.57-20.95Q201.57-13.25 201.57-10.15L201.57-10.15Q201.57-9.85 201.82-8.6L201.82-8.6Q202.07-7.45 202.07-7.1L202.07-7.1Q202.07-6.75 202.57-4.1L202.57-4.1Q203.02-1.7 203.02-1L203.02-1 203.02-0.95Q203.02 0.15 202.22 0.45L202.22 0.45ZM198.92-9.15Q198.77-9.9 198.77-11L198.77-11Q198.77-15.5 197.97-22.5L197.97-22.5 197.47-27.7Q195.32-15.95 194.52-9.95L194.52-9.95Q195.27-9.45 198.92-9.15L198.92-9.15ZM220.97 0.15Q220.37 0.15 220.07-0.18 219.77-0.5 219.62-1.3L219.62-1.3 219.32-2.25 219.32-2.35 219.32-2.5Q219.32-4.15 215.89-13.75 212.47-23.35 210.52-27.95L210.52-27.95 210.52-2.8 210.72-2.45Q210.77-2.35 210.92-2.1 211.07-1.85 211.07-1.6L211.07-1.6Q211.07-0.95 210.62-0.5 210.17-0.05 209.52-0.05L209.52-0.05Q207.92-0.05 207.92-3.1L207.92-3.1 207.87-11.65Q207.82-15.5 207.82-20.25L207.82-20.25Q207.82-21.85 207.97-24.9L207.97-24.9Q208.12-28.05 208.12-29.55L208.12-29.55Q208.12-31.9 209.92-33.25L209.92-33.25 209.92-32.95Q210.22-33.05 210.32-33.05L210.32-33.05Q211.47-33.05 213.22-29.05L213.22-29.05Q214.62-25.85 215.74-22.3 216.87-18.75 218.72-12.2L218.72-12.2 219.22-10.4Q220.37-6.35 220.97-4.6L220.97-4.6Q221.97-15.35 221.97-30L221.97-30 221.97-30.65Q221.92-30.95 221.92-31.3L221.92-31.3Q221.92-32.8 223.12-32.8L223.12-32.8Q223.82-32.8 224.19-32.25 224.57-31.7 224.57-30.85L224.57-30.85 224.57-27.1Q224.47-19.4 223.97-10.4 223.47-1.4 222.77-0.25L222.77-0.25Q221.32 0.15 220.97 0.15L220.97 0.15ZM234.96-0.15L234.06-0.8 234.01-2.75Q233.96-3.6 233.96-4.65L233.96-4.65 234.01-6.35Q233.86-6.9 233.26-17.3 232.66-27.7 232.56-30.65L232.56-30.65Q229.66-30.75 228.86-31.25L228.86-31.25Q228.31-31.65 228.31-32.15L228.31-32.15Q228.31-32.55 228.84-32.88 229.36-33.2 229.91-33.2L229.91-33.2Q231.31-33.2 233.31-33L233.31-33Q235.21-32.75 236.71-32.75L236.71-32.75 237.11-32.75 237.51-32.75Q239.06-32.75 239.06-31.55L239.06-31.55Q239.06-30.95 238.56-30.58 238.06-30.2 237.41-30.2L237.41-30.2Q236.96-30.2 236.11-30.35L236.11-30.35 235.11-30.55 235.06-30.3 235.01-30.05Q235.01-25.6 235.86-15.85L235.86-15.85Q236.66-6.7 236.66-1.65L236.66-1.65Q236.66-1.05 236.14-0.6 235.61-0.15 234.96-0.15L234.96-0.15ZM247.86 0.8Q247.21 0.8 246.71 0.25 246.21-0.3 246.21-1L246.21-1Q246.21-1.75 246.76-2.35 247.31-2.95 248.06-2.95L248.06-2.95Q248.76-2.95 249.31-2.35 249.86-1.75 249.86-1.05L249.86-1.05Q249.86-0.25 249.29 0.28 248.71 0.8 247.86 0.8L247.86 0.8ZM276.86 0.5Q275.91 0.5 275-0.85L275-0.85 275-1Q274.86-3.65 274.11-6.9 273.36-10.15 271.91-14.75L271.91-14.75Q270.81-18.2 270.06-20.95L270.06-20.95 270.06-1.25Q270.06-0.45 269.78-0.08 269.5 0.3 268.71 0.3L268.71 0.3Q268.11 0.3 267.75-0.08 267.41-0.45 267.41-1.05L267.41-1.05 267.41-1.45 267.5-16.15Q267.61-22.65 267.61-30.8L267.61-30.8 267.61-36.95Q267.61-37.55 267.86-37.77 268.11-38 268.91-38L268.91-38Q270.16-38 271.21-37.52 272.25-37.05 273-36.2L273-36.2Q274.56-34.45 275-32L275-32Q275.21-31 275.21-29.7L275.21-29.7Q275.21-28.95 275.08-28.05 274.96-27.15 274.91-26.9L274.91-26.9Q274.81-26.4 274.46-25.4 274.11-24.4 274-24.1L274-24.1 273.41-22.7 272.91-21.4Q272.96-19.6 273.53-16.85 274.11-14.1 274.81-11.75L274.81-11.75Q275.31-10.1 276.61-6.25L276.61-6.25 278.06-1.85 278.06-1.75Q278.06-0.9 277.91-0.3L277.91-0.3Q277.75 0.5 276.86 0.5L276.86 0.5ZM269.96-23.2Q270.66-23.9 271.66-25.15L271.66-25.15 272.41-29.45Q272.46-29.7 272.46-30.15L272.46-30.15Q272.46-31.6 271.91-33.5L271.91-33.5Q271.61-34.4 271.13-35.02 270.66-35.65 270.16-35.7L270.16-35.7 270.06-30.7Q269.91-27.35 269.91-25.5L269.91-25.5Q269.91-23.75 269.96-23.2L269.96-23.2ZM284.4 0.65Q283.75 0.65 283.23 0.2 282.7-0.25 282.65-0.9L282.65-0.9 282.65-2.2 282.65-3.2Q282.6-3.65 282.6-4.25L282.6-4.25Q282.6-5.3 282.45-7.45L282.45-7.45 282.35-10.65Q282.35-13.1 282.5-17.95L282.5-17.95Q282.7-22.3 282.7-25.25L282.7-25.25Q282.7-25.95 282.55-27.35L282.55-27.35Q282.4-28.8 282.4-29.45L282.4-29.45Q282.4-33 284.5-33L284.5-33Q286.15-33 288.33-32.35 290.5-31.7 290.5-30.8L290.5-30.8Q290.5-30.3 290.08-29.88 289.65-29.45 289.05-29.2L289.05-29.2Q286.95-29.95 285.25-30.2L285.25-30.2Q285.3-29.45 285.3-28.05L285.3-28.05Q285.3-26.05 285.25-24.45L285.25-24.45Q285.1-22.05 285.1-20.85L285.1-20.85 285.25-20.05 286.05-20.1Q286.45-20.15 287.05-20.15L287.05-20.15Q289.45-20.15 289.45-18.75L289.45-18.75Q289.45-18.2 289-17.82 288.55-17.45 287.85-17.45L287.85-17.45Q286.95-17.45 286.45-17.55L286.45-17.55 285.2-17.55Q285.3-16.25 285.3-13.75L285.3-13.75Q285.3-11.25 285.25-9.25L285.25-9.25Q285.1-6.2 285.1-4.7L285.1-4.7Q285.1-1.9 285.2-1.9L285.2-1.9 286.85-1.95Q287.7-2 288.9-2L288.9-2Q290.8-2 290.8-0.8L290.8-0.8Q290.8-0.1 290.18 0.28 289.55 0.65 288.65 0.65L288.65 0.65 284.4 0.65ZM316.45 2.6Q314.9 2.6 314.9-0.5L314.9-0.5 314.9-3.7 314.9-6.9Q314.9-9.4 314.55-13.45L314.55-13.45Q314.15-18 314.15-19.7L314.15-19.7 314.25-22.8Q314.35-24.15 314.35-25.85L314.35-25.85Q314.15-25.2 312.7-18.95L312.7-18.95Q311.25-12.9 309.7-7.75L309.7-7.75Q308.2-2.8 307.25-2.8L307.25-2.8Q306.3-2.8 305.73-3.38 305.15-3.95 305.15-4.95L305.15-4.95Q305.15-7.15 303.38-14.3 301.6-21.45 300.15-26L300.15-26 299.85-20.35Q299.45-13.2 299.3-8.45L299.3-8.45Q299.2-3.85 299.2-2.15L299.2-2.15Q299.2-1.75 299.25-1.4L299.25-1.4 299.25-0.7Q299.25 0.15 298.9 0.58 298.55 1 297.6 1L297.6 1Q297.1 1 296.65 0.63 296.2 0.25 296.2-0.2L296.2-0.2Q296.2-5.3 296.95-15.5L296.95-15.5Q297.7-25.7 297.7-30.8L297.7-30.8Q297.4-31.25 297.4-31.75L297.4-31.75Q297.4-32.35 297.98-32.68 298.55-33 299.35-33L299.35-33Q300-33 301.75-28.3 303.5-23.6 305.25-17.65 307-11.7 307.5-9.05L307.5-9.05Q307.9-10.4 308.15-11.55L308.15-11.55 308.45-12.75Q310.05-19.75 311.65-25.4L311.65-25.4Q312.6-28.85 313.5-30.8L313.5-30.8Q314.4-32.9 315.15-32.9L315.15-32.9Q315.85-32.9 316.43-32.52 317-32.15 317-31.55L317-31.55Q317-27.95 317.3-20.75L317.3-20.75Q317.65-14.05 317.65-10.35L317.65-10.35 317.6-7.7 317.5-5.05Q317.5-4.45 317.65-3.25L317.65-3.25 317.8-1.5Q317.85-1.05 317.88-0.8 317.9-0.55 317.9-0.5L317.9-0.5Q318.15 0.15 318.15 0.45L318.15 0.45Q318.15 1.3 317.65 1.95 317.15 2.6 316.45 2.6L316.45 2.6ZM334.2 0.45Q333.05 0.45 332.5 0.1 331.95-0.25 331.95-1.2L331.95-1.2Q331.95-2.7 331.45-6.3L331.45-6.3 331.25-7.35 326.3-8.1Q326-6.95 325.45-3.45L325.45-3.45Q325.15-1 324.5-0.2L324.5-0.2Q324.15 0.25 323.5 0.25L323.5 0.25Q322.9 0.25 322.4-0.13 321.9-0.5 321.9-1.05L321.9-1.05 322-1.3 322.05-1.5Q325.35-14.35 327.05-26.85L327.05-26.85Q327.05-27.05 327.1-27.53 327.15-28 327.2-28.9L327.2-28.9Q327.35-30.75 327.52-31.85 327.7-32.95 328.1-33.5L328.1-33.5 329.8-33.5Q330.5-33.5 331-33.18 331.5-32.85 331.5-32.25L331.5-32.25Q331.5-28.45 332.55-20.95L332.55-20.95Q333.55-13.25 333.55-10.15L333.55-10.15Q333.55-9.85 333.8-8.6L333.8-8.6Q334.05-7.45 334.05-7.1L334.05-7.1Q334.05-6.75 334.55-4.1L334.55-4.1Q335-1.7 335-1L335-1 335-0.95Q335 0.15 334.2 0.45L334.2 0.45ZM330.9-9.15Q330.75-9.9 330.75-11L330.75-11Q330.75-15.5 329.95-22.5L329.95-22.5 329.45-27.7Q327.3-15.95 326.5-9.95L326.5-9.95Q327.25-9.45 330.9-9.15L330.9-9.15ZM348.05 0.85Q346.94 0.85 346.05-1.55L346.05-1.55Q345-4.15 344.5-6.9L344.5-6.9 344.14-8.6Q342.69-15.75 342.3-16.75L342.3-16.75 341.69-16.75Q341.69-15.3 341.64-14.1L341.64-14.1 341.64-11.35Q341.64-4.65 342.6-0.9L342.6-0.9 342.05 0.45 340.64 0.45 340-0.3 340.05-3.65Q340.05-8.15 339.6-17.3L339.6-17.3Q339.19-27.05 339.19-30.95L339.19-30.95Q339.19-33.35 340.85-33.35L340.85-33.35Q343.55-33.35 345.27-31.95 347-30.55 347-28.05L347-28.05 347-24.55Q347-23.8 346.75-22.83 346.5-21.85 346.19-21.25L346.19-21.25 345.25-19.45 344.44-17.95 344.69-16.75 345.39-13.2Q346.1-9.35 346.75-6.95 347.39-4.55 348.35-2.6L348.35-2.6 348.64-2Q349.14-1 349.14-0.4L349.14-0.4Q349.14 0.1 348.85 0.48 348.55 0.85 348.05 0.85L348.05 0.85ZM341.89-19.2Q343-19.75 343.77-22.23 344.55-24.7 344.55-26.8L344.55-26.8Q344.55-28.4 344.14-29.8L344.14-29.8Q343.89-30.6 343.32-31.03 342.75-31.45 341.89-31.45L341.89-31.45 341.8-31.2 341.69-30.75 341.8-24.85Q341.89-22.25 341.89-19.2L341.89-19.2ZM365.84 0.85Q364.69 0.85 363.39-1.65L363.39-1.65Q361.44-5.4 359.54-14L359.54-14Q358.99-16.35 358.64-18.35L358.64-18.35Q356.84-14.75 356.84-9.65L356.84-9.65 356.84-0.4Q356.84 0.75 355.84 0.75L355.84 0.75Q355.09 0.75 354.62 0.33 354.14-0.1 354.14-0.85L354.14-0.85 354.14-16Q354.14-18.2 354.64-24.1L354.64-24.1Q355.14-29.25 355.14-32.2L355.14-32.2Q355.54-33.15 356.59-33.15L356.59-33.15Q357.24-33.15 357.69-32.7 358.14-32.25 358.14-31.6L358.14-31.6 358.14-31.45Q357.49-30.35 357.49-22.35L357.49-22.35 357.49-20.55 359.34-24.2Q361.04-27.75 362.54-30.3L362.54-30.3Q363.94-32.8 364.59-32.8L364.59-32.8Q365.39-32.8 365.97-32.45 366.54-32.1 366.54-31.45L366.54-31.45 365.34-29.45Q361.59-23.4 361.14-22.45L361.14-22.45Q361.14-21.6 361.09-20.95L361.09-20.95 361.04-19.45Q361.04-17.3 362.77-11.43 364.49-5.55 365.64-3.65L365.64-3.65 366.29-2.75Q367.24-1.45 367.24-0.45L367.24-0.45Q367.24 0.1 366.82 0.48 366.39 0.85 365.84 0.85L365.84 0.85ZM381.39 0.45Q380.24 0.45 379.69 0.1 379.14-0.25 379.14-1.2L379.14-1.2Q379.14-2.7 378.64-6.3L378.64-6.3 378.44-7.35 373.49-8.1Q373.19-6.95 372.64-3.45L372.64-3.45Q372.34-1 371.69-0.2L371.69-0.2Q371.34 0.25 370.69 0.25L370.69 0.25Q370.09 0.25 369.59-0.13 369.09-0.5 369.09-1.05L369.09-1.05 369.19-1.3 369.24-1.5Q372.54-14.35 374.24-26.85L374.24-26.85Q374.24-27.05 374.29-27.53 374.34-28 374.39-28.9L374.39-28.9Q374.54-30.75 374.72-31.85 374.89-32.95 375.29-33.5L375.29-33.5 376.99-33.5Q377.69-33.5 378.19-33.18 378.69-32.85 378.69-32.25L378.69-32.25Q378.69-28.45 379.74-20.95L379.74-20.95Q380.74-13.25 380.74-10.15L380.74-10.15Q380.74-9.85 380.99-8.6L380.99-8.6Q381.24-7.45 381.24-7.1L381.24-7.1Q381.24-6.75 381.74-4.1L381.74-4.1Q382.19-1.7 382.19-1L382.19-1 382.19-0.95Q382.19 0.15 381.39 0.45L381.39 0.45ZM378.09-9.15Q377.94-9.9 377.94-11L377.94-11Q377.94-15.5 377.14-22.5L377.14-22.5 376.64-27.7Q374.49-15.95 373.69-9.95L373.69-9.95Q374.44-9.45 378.09-9.15L378.09-9.15ZM387.94 0.5Q386.84 0.5 386.59-0.45L386.59-0.45Q386.39-1.05 386.39-2.15L386.39-2.15Q386.39-4.3 386.59-7.45L386.59-7.45Q386.84-10.45 386.84-12.8L386.84-12.8Q386.84-15.45 386.99-20.75L386.99-20.75 387.09-28.65Q387.09-29.1 386.94-30L386.94-30 386.79-31.25 386.79-31.5Q386.79-32.65 387.14-33.2 387.49-33.75 388.44-33.75L388.44-33.75Q389.74-33.75 391.29-33 392.84-32.25 393.54-31.1L393.54-31.1Q394.99-28.7 394.99-25.1L394.99-25.1Q394.99-22.4 394.54-20.58 394.09-18.75 392.99-17.2L392.99-17.2Q394.34-15.9 394.81-13.88 395.29-11.85 395.29-8.8L395.29-8.8Q395.29-5.75 394.24-3.5L394.24-3.5Q393.04-0.95 390.74 0L390.74 0Q389.34 0.5 387.94 0.5L387.94 0.5ZM389.54-18.65Q392.14-18.7 392.14-24.7L392.14-24.7Q392.14-31.15 390.09-31.45L390.09-31.45Q389.54-30.3 389.54-26.05L389.54-26.05 389.54-18.65ZM389.24-2.05Q390.84-2.4 391.74-3.95 392.64-5.5 392.64-7.5L392.64-7.5Q392.64-9.6 392.39-11.2L392.39-11.2Q392.19-12.45 391.86-13.28 391.54-14.1 390.99-14.8L390.99-14.8Q390.39-15.55 389.59-15.7L389.59-15.7Q389.39-12.85 389.39-8.15L389.39-8.15Q389.39-7.85 389.29-6.25L389.29-6.25 389.19-4.55Q389.19-4.45 389.24-4.4L389.24-4.4 389.24-4.3 389.24-2.05ZM408.44 0.8Q406.63 0.2 403.99 0.2L403.99 0.2Q403.19 0.7 402.29 0.7L402.29 0.7Q401.69 0.7 401.26 0.18 400.83-0.35 400.83-0.95L400.83-0.95Q400.83-5.15 401.19-12.15L401.19-12.15Q401.49-19.6 401.49-23.3L401.49-23.3 401.49-23.65Q401.19-26.8 401.19-28.35L401.19-28.35Q401.19-33.1 402.94-33.1L402.94-33.1Q403.44-33.1 403.81-32.73 404.19-32.35 404.19-31.85L404.19-31.85Q404.19-31.25 404.04-29.95L404.04-29.95Q403.88-28.7 403.88-28.05L403.88-28.05Q403.88-24.7 403.94-22L403.94-22Q403.99-19.35 403.99-16L403.99-16Q403.74-15.25 403.74-13.9L403.74-13.9 403.74-13.3 403.63-9.35Q403.54-7.6 403.54-5.35L403.54-5.35Q403.54-1.9 405.19-1.9L405.19-1.9Q405.29-1.9 405.51-1.93 405.74-1.95 406.13-1.95L406.13-1.95Q406.58-2 407.29-2L407.29-2Q409.99-2 409.99-0.5L409.99-0.5Q409.99 0 409.54 0.35 409.08 0.7 408.44 0.8L408.44 0.8ZM416.43 0.65Q415.78 0.65 415.26 0.2 414.73-0.25 414.68-0.9L414.68-0.9 414.68-2.2 414.68-3.2Q414.63-3.65 414.63-4.25L414.63-4.25Q414.63-5.3 414.48-7.45L414.48-7.45 414.38-10.65Q414.38-13.1 414.53-17.95L414.53-17.95Q414.73-22.3 414.73-25.25L414.73-25.25Q414.73-25.95 414.58-27.35L414.58-27.35Q414.43-28.8 414.43-29.45L414.43-29.45Q414.43-33 416.53-33L416.53-33Q418.18-33 420.36-32.35 422.53-31.7 422.53-30.8L422.53-30.8Q422.53-30.3 422.11-29.88 421.68-29.45 421.08-29.2L421.08-29.2Q418.98-29.95 417.28-30.2L417.28-30.2Q417.33-29.45 417.33-28.05L417.33-28.05Q417.33-26.05 417.28-24.45L417.28-24.45Q417.13-22.05 417.13-20.85L417.13-20.85 417.28-20.05 418.08-20.1Q418.48-20.15 419.08-20.15L419.08-20.15Q421.48-20.15 421.48-18.75L421.48-18.75Q421.48-18.2 421.03-17.82 420.58-17.45 419.88-17.45L419.88-17.45Q418.98-17.45 418.48-17.55L418.48-17.55 417.23-17.55Q417.33-16.25 417.33-13.75L417.33-13.75Q417.33-11.25 417.28-9.25L417.28-9.25Q417.13-6.2 417.13-4.7L417.13-4.7Q417.13-1.9 417.23-1.9L417.23-1.9 418.88-1.95Q419.73-2 420.93-2L420.93-2Q422.83-2 422.83-0.8L422.83-0.8Q422.83-0.1 422.21 0.28 421.58 0.65 420.68 0.65L420.68 0.65 416.43 0.65ZM432.13 0.8Q431.48 0.8 430.98 0.25 430.48-0.3 430.48-1L430.48-1Q430.48-1.75 431.03-2.35 431.58-2.95 432.33-2.95L432.33-2.95Q433.03-2.95 433.58-2.35 434.13-1.75 434.13-1.05L434.13-1.05Q434.13-0.25 433.55 0.28 432.98 0.8 432.13 0.8L432.13 0.8Z" opacity="1" transform="matrix(1,0,0,1,0,0)" fill="#000000" class="slogan-text-1" data-fill-palette-color="secondary" id="text-1"></path></svg></g></svg></g></svg></g></svg></g><g></g></svg></g><defs></defs></svg><rect width="395.52" height="122.110575863836" fill="none" stroke="none" visibility="hidden"></rect></g></svg></g></svg>